<?xml version="1.0" encoding="UTF-8"?>
<svg version="1.1" xmlns="http://www.w3.org/2000/svg" width="520" height="476">
<path d="M0 0 C4.83584729 2.79067313 7.95008216 6.05244251 11.125 10.5625 C11.59019043 11.20437256 12.05538086 11.84624512 12.53466797 12.50756836 C15.20264616 16.24904994 17.6849673 20.067694 20.0625 24 C20.57409668 24.84103271 21.08569336 25.68206543 21.61279297 26.54858398 C22.59422133 28.18012545 23.5579777 29.82247808 24.50048828 31.47680664 C30.63069052 41.71365973 39.86379561 45.06575944 50.75 48.875 C53.16172696 49.74404656 55.57318257 50.61384648 57.984375 51.484375 C59.17224609 51.90912109 60.36011719 52.33386719 61.58398438 52.77148438 C101.56281537 67.14923435 101.56281537 67.14923435 115.57543945 76.29467773 C120.35132406 79.23591197 123.72439883 79.08408102 129 78 C132.59759994 77.05590228 136.12986789 75.94215143 139.66796875 74.796875 C140.66580887 74.47720764 141.66364899 74.15754028 142.69172668 73.82818604 C144.78978434 73.15280845 146.88658612 72.47351825 148.98217773 71.79052734 C152.18296691 70.75147156 155.39081648 69.73668293 158.59960938 68.72265625 C160.64370609 68.06136823 162.6873427 67.39865593 164.73046875 66.734375 C165.68575974 66.43521179 166.64105072 66.13604858 167.62528992 65.82781982 C172.9499041 64.06214776 176.29331679 62.40389161 180 58 C185.81151515 53.13454545 185.81151515 53.13454545 190.3125 52.625 C194 53 194 53 196.875 54.9375 C199.64593061 58.9309 200.41951703 62.16271183 200 67 C198.17268376 70.95918518 196.18110289 72.96249472 192.5625 75.1875 C184.43988878 80.66437621 181.87668188 94.42315571 178.6875 103.1875 C178.23310547 104.42564453 177.77871094 105.66378906 177.31054688 106.93945312 C176.20325627 109.95827698 175.09982271 112.97844922 174 116 C174.59820557 116.28359375 175.19641113 116.5671875 175.81274414 116.859375 C178.9857047 118.51403196 181.65907204 120.76821087 184.4375 123 C185.69631744 123.99777083 186.95543868 124.99515849 188.21484375 125.9921875 C190.04220713 127.44386169 191.86921049 128.895986 193.69580078 130.34863281 C212.34197997 145.12400228 232.8745859 157.91197878 257.08984375 160.3125 C260.62841082 161.14845678 262.42426586 162.46112788 265 165 C266.12298709 168.86026811 266.36341011 171.03803207 264.9375 174.8125 C262.31493616 177.77345917 260.93207101 178.31016298 257 179 C255.36635819 178.88668154 253.73566862 178.72851922 252.10839844 178.54516602 C242.6560402 177.68953552 233.18518788 177.87674039 223.703125 177.90234375 C221.65761347 177.90421218 219.61210149 177.90563407 217.56658936 177.90663147 C212.22048679 177.91042323 206.87441201 177.92022445 201.52832031 177.93133545 C196.05794653 177.94162194 190.5875682 177.9461445 185.1171875 177.95117188 C174.41144622 177.96185017 163.70572543 177.97888578 153 178 C148.50123687 192.6502309 144.63755981 207.27841337 141.59881592 222.29891968 C140.56295 227.40386671 139.48695579 232.50038535 138.4140625 237.59765625 C138.20528473 238.59179031 137.99650696 239.58592438 137.78140259 240.61018372 C134.37035112 256.80013817 130.8901146 272.95701181 124.9375 288.4375 C124.63312012 289.24340576 124.32874023 290.04931152 124.01513672 290.87963867 C121.88428739 296.04146656 119.59123013 298.79724673 115 302 C111.59170924 303.39827313 110.19232976 303.0569866 106.625 302 C97.19806018 297.36814862 92.72474797 288.42288392 89 279 C87.95710252 275.87493255 87.05924149 272.71744115 86.1796875 269.54296875 C85.7973571 268.18402245 85.7973571 268.18402245 85.40730286 266.79762268 C82.61649993 256.78557124 80.06616774 246.71166246 77.50375366 236.63934326 C72.62850848 217.51566681 67.3731719 198.67978628 61 180 C60.30668076 179.97938507 59.61336151 179.95877014 58.89903259 179.93753052 C52.29590114 179.73981358 45.69304876 179.53457109 39.09039974 179.32132149 C35.69766305 179.21199795 32.30489059 179.10536953 28.91186523 179.00537109 C-8.20219872 177.89789672 -8.20219872 177.89789672 -20.875 173.4375 C-21.61113525 173.18572998 -22.34727051 172.93395996 -23.10571289 172.67456055 C-44.17233876 165.1253317 -44.17233876 165.1253317 -50 158 C-50.70533643 152.53364269 -50.70533643 152.53364269 -50 150 C-46.39991476 145.59229108 -42.44753127 143.40259469 -37.375 141.125 C-36.24868164 140.61030151 -36.24868164 140.61030151 -35.09960938 140.08520508 C-23.956386 135.08483361 -12.46154191 131.13574764 -0.87890625 127.29296875 C-0.15734344 127.05343979 0.56421936 126.81391083 1.30764771 126.56712341 C4.92743104 125.36720809 8.54940623 124.17472078 12.17578125 122.99487305 C19.50504726 120.59573727 26.6764014 118.01091604 33.74438477 114.90478516 C36 114 36 114 38 114 C29.18264285 90.80482214 19.00062667 73.06151577 1.8828125 55.09375 C0.05258863 53.16849585 -1.57954298 51.26415295 -3.23046875 49.16796875 C-4.86644873 46.8541874 -4.86644873 46.8541874 -7.4375 45.8125 C-13.22612696 41.71810532 -15.39543725 33.63219271 -17 27 C-17.76046138 18.74103568 -18.2643742 9.90080723 -13 3 C-8.97702633 -0.65282113 -5.21261451 -1.77450707 0 0 Z M30 60 C30.36351562 60.53367188 30.72703125 61.06734375 31.1015625 61.6171875 C32.75371104 64.06575636 34.37961237 66.53030575 36 69 C36.70189453 70.04994141 36.70189453 70.04994141 37.41796875 71.12109375 C44.44942152 82.17051953 49.53286946 94.71893636 54 107 C58.13175154 106.32483611 61.75104356 105.01758695 65.62890625 103.453125 C66.25925278 103.20004578 66.8895993 102.94696655 67.53904724 102.68621826 C69.54851907 101.87818324 71.55548615 101.06411811 73.5625 100.25 C74.8833104 99.71836936 76.20427276 99.18711612 77.52539062 98.65625 C85.37494994 95.49639387 93.1976761 92.27498177 101 89 C98.68292631 86.38584152 96.48283263 85.13011938 93.28515625 83.7578125 C92.30579102 83.33749756 91.32642578 82.91718262 90.31738281 82.48413086 C89.24327148 82.03561768 88.16916016 81.58710449 87.0625 81.125 C85.38365723 80.41839233 85.38365723 80.41839233 83.67089844 79.69750977 C66.08241122 72.41800167 48.07525763 65.96399723 30 60 Z M159.2109375 86.53125 C158.26992188 86.84707031 157.32890625 87.16289062 156.359375 87.48828125 C155.37453125 87.82214844 154.3896875 88.15601563 153.375 88.5 C152.38242187 88.83386719 151.38984375 89.16773438 150.3671875 89.51171875 C147.91054378 90.33847385 145.45487492 91.16801046 143 92 C146.19766074 95.32395973 149.39946919 98.18208224 153.1875 100.8125 C154.04730469 101.41707031 154.90710938 102.02164063 155.79296875 102.64453125 C157.85236881 104.17444663 157.85236881 104.17444663 160 104 C161.00605593 101.39802798 162.00502525 98.79370638 163 96.1875 C163.42925781 95.08051758 163.42925781 95.08051758 163.8671875 93.95117188 C164.13789063 93.23896484 164.40859375 92.52675781 164.6875 91.79296875 C164.93886719 91.1383667 165.19023437 90.48376465 165.44921875 89.80932617 C166.14560906 87.83688857 166.14560906 87.83688857 166 85 C163.47936791 85 161.60282273 85.72434896 159.2109375 86.53125 Z M110.5625 103.0625 C109.68956299 103.39958984 108.81662598 103.73667969 107.91723633 104.08398438 C92.20441514 110.20071904 76.61118724 116.62961037 61 123 C61.57670857 128.09282446 62.73656032 132.6461529 64.50390625 137.46484375 C64.7466478 138.14301651 64.98938934 138.82118927 65.23948669 139.51991272 C66.00760302 141.661408 66.78487128 143.79944299 67.5625 145.9375 C68.08850199 147.39886863 68.6138985 148.86045535 69.13867188 150.32226562 C70.41879843 153.88406878 71.70713716 157.44280111 73 161 C79.16658243 161.02516024 85.33313348 161.04307184 91.49975586 161.05493164 C93.58732627 161.05988796 95.67489336 161.06665497 97.76245117 161.07543945 C111.87546725 161.13323788 125.9097658 160.81606515 140 160 C143.46338572 152.14042334 146.48222018 144.14769271 149.375 136.0625 C149.74496094 135.05566162 150.11492187 134.04882324 150.49609375 133.01147461 C150.83511719 132.04991455 151.17414063 131.08835449 151.5234375 130.09765625 C151.83200684 129.23664307 152.14057617 128.37562988 152.45849609 127.48852539 C153.09675476 124.55535559 152.97955775 122.83517832 152 120 C150.43168554 118.26782213 150.43168554 118.26782213 148.3515625 116.9140625 C147.5982666 116.37869873 146.8449707 115.84333496 146.06884766 115.29174805 C145.26237793 114.74172119 144.4559082 114.19169434 143.625 113.625 C142.80950684 113.05499268 141.99401367 112.48498535 141.15380859 111.89770508 C138.78035399 110.24812829 136.39298401 108.6210704 134 107 C133.07767578 106.36602295 133.07767578 106.36602295 132.13671875 105.71923828 C123.80125409 100.00725668 120.13155417 99.30941564 110.5625 103.0625 Z M41.17285156 130.50634766 C40.4197168 130.80589355 39.66658203 131.10543945 38.890625 131.4140625 C37.56732178 131.92839844 37.56732178 131.92839844 36.21728516 132.453125 C34.748479 133.03320312 34.748479 133.03320312 33.25 133.625 C20.11284932 138.69671501 6.80956598 143.22881306 -6.52636719 147.74462891 C-7.33689545 148.01949127 -8.14742371 148.29435364 -8.98251343 148.57754517 C-10.51879513 149.09811232 -12.05557828 149.61720261 -13.59292603 150.13461304 C-17.36527142 151.39709861 -17.36527142 151.39709861 -21 153 C-21 153.66 -21 154.32 -21 155 C-3.33462416 161.23127983 13.97077283 161.27427026 32.5 161.125 C34.69140213 161.11494323 36.88280876 161.10582218 39.07421875 161.09765625 C44.38291263 161.07587242 49.69143452 161.04261153 55 161 C53.62201669 156.74267691 52.23430928 152.4886895 50.83740234 148.23754883 C50.36334313 146.79018984 49.89197731 145.34194583 49.42333984 143.89282227 C48.75019118 141.81289251 48.06749627 139.73631291 47.3828125 137.66015625 C46.97434082 136.40855713 46.56586914 135.15695801 46.14501953 133.86743164 C44.71410425 130.21482753 44.71410425 130.21482753 41.17285156 130.50634766 Z M168 133 C167.60167969 134.0621875 167.20335937 135.124375 166.79296875 136.21875 C165.73046875 139.05208333 164.66796875 141.88541667 163.60546875 144.71875 C163.3429834 145.42257813 163.08049805 146.12640625 162.81005859 146.8515625 C162.26069759 148.30857783 161.70075993 149.76164082 161.13134766 151.2109375 C159.46864676 155.4778396 159.46864676 155.4778396 159 160 C173.52 160 188.04 160 203 160 C199.59777083 156.59777083 197.00305214 154.14384715 193.1875 151.5 C187.36818902 147.36376396 181.87400382 142.88036655 176.39526367 138.3046875 C175.73888916 137.76199219 175.08251465 137.21929687 174.40625 136.66015625 C173.82166016 136.17168213 173.23707031 135.68320801 172.63476562 135.17993164 C170.89141856 133.79780353 170.89141856 133.79780353 168 133 Z M80 179 C81.52535656 186.45456514 83.60469584 193.71351568 85.73944092 201.01150513 C89.05377894 212.35896715 92.22857493 223.73399122 95.1875 235.1796875 C95.45341949 236.20800186 95.71933899 237.23631622 95.99331665 238.29579163 C97.30304524 243.37362476 98.60127495 248.45418007 99.88818359 253.5378418 C100.37068757 255.42238393 100.85326868 257.30690633 101.3359375 259.19140625 C101.65111328 260.45674698 101.65111328 260.45674698 101.97265625 261.74765015 C103.50794629 267.71436579 105.59572718 273.32991466 108 279 C108.66 279 109.32 279 110 279 C115.12143828 262.4658199 119.1464947 245.89951678 122.5625 228.9375 C123.45196737 224.54917995 124.34853468 220.16241073 125.25390625 215.77734375 C125.4724527 214.71784515 125.69099915 213.65834656 125.91616821 212.56674194 C128.0840109 202.25460952 130.74130035 192.08495833 133.5355072 181.92677307 C134.07811969 180.00627842 134.07811969 180.00627842 134 178 C127.11320788 177.97462909 120.22642783 177.95712429 113.33959961 177.94506836 C110.99714711 177.94004199 108.65469775 177.93321992 106.31225586 177.92456055 C102.94383978 177.91242082 99.57546522 177.90675469 96.20703125 177.90234375 C95.16102249 177.89718246 94.11501373 177.89202118 93.03730774 177.88670349 C91.56634895 177.88659019 91.56634895 177.88659019 90.06567383 177.88647461 C89.20629715 177.884254 88.34692047 177.88203339 87.46150208 177.87974548 C84.88900339 178.00542264 82.50932729 178.43351574 80 179 Z " fill="#00ff41"
      stroke="#00ff41"
      stroke-width="8"
      stroke-linejoin="round" transform="translate(156,80)"/>
</svg>
